<svg width="1200" height="675" viewBox="0 0 1200 675" fill="none" xmlns="http://www.w3.org/2000/svg">
<g clip-path="url(#clip0_101_2500)">
<path fill-rule="evenodd" clip-rule="evenodd" d="M120 97.9869C120.007 31.7188 172.94 -22 238.235 -22C238.825 -22 239.413 -21.9956 240 -21.9869C239.993 44.2812 187.06 98 121.765 98C121.175 98 120.587 97.9956 120 97.9869Z" fill="#E8E4DC"/>
<path fill-rule="evenodd" clip-rule="evenodd" d="M120.013 98C186.281 98.007 240 150.94 240 216.235C240 216.825 239.996 217.413 239.987 218C173.719 217.993 120 165.06 120 99.7648C120 99.1755 120.004 98.5872 120.013 98Z" fill="#E8E4DC"/>
<path fill-rule="evenodd" clip-rule="evenodd" d="M0.0130844 -22C66.2812 -21.993 120 30.94 120 96.2353C120 96.8246 119.996 97.4128 119.987 98.0001C53.7187 97.9931 -1.05607e-05 45.06 -7.70654e-06 -20.2352C-7.68078e-06 -20.8245 0.00436399 -21.4128 0.0130844 -22Z" fill="#E8E4DC"/>
<path fill-rule="evenodd" clip-rule="evenodd" d="M0 217.987C0.00697202 151.719 52.94 98 118.235 98C118.825 98 119.413 98.0044 120 98.0131C119.993 164.281 67.0599 218 1.76469 218C1.17544 218 0.587202 217.996 0 217.987Z" fill="#E8E4DC"/>
</g>
<g clip-path="url(#clip1_101_2500)">
<path fill-rule="evenodd" clip-rule="evenodd" d="M360 97.9869C360.007 31.7188 412.94 -22 478.235 -22C478.825 -22 479.413 -21.9956 480 -21.9869C479.993 44.2812 427.06 98 361.765 98C361.175 98 360.587 97.9956 360 97.9869Z" fill="#E8E4DC"/>
<path fill-rule="evenodd" clip-rule="evenodd" d="M360.013 98C426.281 98.007 480 150.94 480 216.235C480 216.825 479.996 217.413 479.987 218C413.719 217.993 360 165.06 360 99.7648C360 99.1755 360.004 98.5872 360.013 98Z" fill="#E8E4DC"/>
<path fill-rule="evenodd" clip-rule="evenodd" d="M240.013 -22C306.281 -21.993 360 30.94 360 96.2353C360 96.8246 359.996 97.4128 359.987 98.0001C293.719 97.9931 240 45.06 240 -20.2352C240 -20.8245 240.004 -21.4128 240.013 -22Z" fill="#E8E4DC"/>
<path fill-rule="evenodd" clip-rule="evenodd" d="M240 217.987C240.007 151.719 292.94 98 358.235 98C358.825 98 359.413 98.0044 360 98.0131C359.993 164.281 307.06 218 241.765 218C241.175 218 240.587 217.996 240 217.987Z" fill="#E8E4DC"/>
</g>
<g clip-path="url(#clip2_101_2500)">
<path fill-rule="evenodd" clip-rule="evenodd" d="M600 97.9869C600.007 31.7188 652.94 -22 718.235 -22C718.825 -22 719.413 -21.9956 720 -21.9869C719.993 44.2812 667.06 98 601.765 98C601.175 98 600.587 97.9956 600 97.9869Z" fill="#E8E4DC"/>
<path fill-rule="evenodd" clip-rule="evenodd" d="M600.013 98C666.281 98.007 720 150.94 720 216.235C720 216.825 719.996 217.413 719.987 218C653.719 217.993 600 165.06 600 99.7648C600 99.1755 600.004 98.5872 600.013 98Z" fill="#E8E4DC"/>
<path fill-rule="evenodd" clip-rule="evenodd" d="M480.013 -22C546.281 -21.993 600 30.94 600 96.2353C600 96.8246 599.996 97.4128 599.987 98.0001C533.719 97.9931 480 45.06 480 -20.2352C480 -20.8245 480.004 -21.4128 480.013 -22Z" fill="#E8E4DC"/>
<path fill-rule="evenodd" clip-rule="evenodd" d="M480 217.987C480.007 151.719 532.94 98 598.235 98C598.825 98 599.413 98.0044 600 98.0131C599.993 164.281 547.06 218 481.765 218C481.175 218 480.587 217.996 480 217.987Z" fill="#E8E4DC"/>
</g>
<g clip-path="url(#clip3_101_2500)">
<path fill-rule="evenodd" clip-rule="evenodd" d="M840 97.9869C840.007 31.7188 892.94 -22 958.235 -22C958.825 -22 959.413 -21.9956 960 -21.9869C959.993 44.2812 907.06 98 841.765 98C841.175 98 840.587 97.9956 840 97.9869Z" fill="#E8E4DC"/>
<path fill-rule="evenodd" clip-rule="evenodd" d="M840.013 98C906.281 98.007 960 150.94 960 216.235C960 216.825 959.996 217.413 959.987 218C893.719 217.993 840 165.06 840 99.7648C840 99.1755 840.004 98.5872 840.013 98Z" fill="#E8E4DC"/>
<path fill-rule="evenodd" clip-rule="evenodd" d="M720.013 -22C786.281 -21.993 840 30.94 840 96.2353C840 96.8246 839.996 97.4128 839.987 98.0001C773.719 97.9931 720 45.06 720 -20.2352C720 -20.8245 720.004 -21.4128 720.013 -22Z" fill="#E8E4DC"/>
<path fill-rule="evenodd" clip-rule="evenodd" d="M720 217.987C720.007 151.719 772.94 98 838.235 98C838.825 98 839.413 98.0044 840 98.0131C839.993 164.281 787.06 218 721.765 218C721.175 218 720.587 217.996 720 217.987Z" fill="#E8E4DC"/>
</g>
<g clip-path="url(#clip4_101_2500)">
<path fill-rule="evenodd" clip-rule="evenodd" d="M1080 97.9869C1080.01 31.7188 1132.94 -22 1198.24 -22C1198.82 -22 1199.41 -21.9956 1200 -21.9869C1199.99 44.2812 1147.06 98 1081.76 98C1081.18 98 1080.59 97.9956 1080 97.9869Z" fill="#E8E4DC"/>
<path fill-rule="evenodd" clip-rule="evenodd" d="M1080.01 98C1146.28 98.007 1200 150.94 1200 216.235C1200 216.825 1200 217.413 1199.99 218C1133.72 217.993 1080 165.06 1080 99.7648C1080 99.1755 1080 98.5872 1080.01 98Z" fill="#E8E4DC"/>
<path fill-rule="evenodd" clip-rule="evenodd" d="M960.013 -22C1026.28 -21.993 1080 30.94 1080 96.2353C1080 96.8246 1080 97.4128 1079.99 98.0001C1013.72 97.9931 960 45.06 960 -20.2352C960 -20.8245 960.004 -21.4128 960.013 -22Z" fill="#E8E4DC"/>
<path fill-rule="evenodd" clip-rule="evenodd" d="M960 217.987C960.007 151.719 1012.94 98 1078.24 98C1078.82 98 1079.41 98.0044 1080 98.0131C1079.99 164.281 1027.06 218 961.765 218C961.175 218 960.587 217.996 960 217.987Z" fill="#E8E4DC"/>
</g>
<g clip-path="url(#clip5_101_2500)">
<path fill-rule="evenodd" clip-rule="evenodd" d="M120 337.987C120.007 271.719 172.94 218 238.235 218C238.825 218 239.413 218.004 240 218.013C239.993 284.281 187.06 338 121.765 338C121.175 338 120.587 337.996 120 337.987Z" fill="#E8E4DC"/>
<path fill-rule="evenodd" clip-rule="evenodd" d="M120.013 338C186.281 338.007 240 390.94 240 456.235C240 456.825 239.996 457.413 239.987 458C173.719 457.993 120 405.06 120 339.765C120 339.175 120.004 338.587 120.013 338Z" fill="#E8E4DC"/>
<path fill-rule="evenodd" clip-rule="evenodd" d="M0.0130844 218C66.2812 218.007 120 270.94 120 336.235C120 336.825 119.996 337.413 119.987 338C53.7187 337.993 -1.05607e-05 285.06 -7.70654e-06 219.765C-7.68078e-06 219.175 0.00436399 218.587 0.0130844 218Z" fill="#E8E4DC"/>
<path fill-rule="evenodd" clip-rule="evenodd" d="M0 457.987C0.00697202 391.719 52.94 338 118.235 338C118.825 338 119.413 338.004 120 338.013C119.993 404.281 67.0599 458 1.76469 458C1.17544 458 0.587202 457.996 0 457.987Z" fill="#E8E4DC"/>
</g>
<g clip-path="url(#clip6_101_2500)">
<path fill-rule="evenodd" clip-rule="evenodd" d="M360 337.987C360.007 271.719 412.94 218 478.235 218C478.825 218 479.413 218.004 480 218.013C479.993 284.281 427.06 338 361.765 338C361.175 338 360.587 337.996 360 337.987Z" fill="#E8E4DC"/>
<path fill-rule="evenodd" clip-rule="evenodd" d="M360.013 338C426.281 338.007 480 390.94 480 456.235C480 456.825 479.996 457.413 479.987 458C413.719 457.993 360 405.06 360 339.765C360 339.175 360.004 338.587 360.013 338Z" fill="#E8E4DC"/>
<path fill-rule="evenodd" clip-rule="evenodd" d="M240.013 218C306.281 218.007 360 270.94 360 336.235C360 336.825 359.996 337.413 359.987 338C293.719 337.993 240 285.06 240 219.765C240 219.175 240.004 218.587 240.013 218Z" fill="#E8E4DC"/>
<path fill-rule="evenodd" clip-rule="evenodd" d="M240 457.987C240.007 391.719 292.94 338 358.235 338C358.825 338 359.413 338.004 360 338.013C359.993 404.281 307.06 458 241.765 458C241.175 458 240.587 457.996 240 457.987Z" fill="#E8E4DC"/>
</g>
<g clip-path="url(#clip7_101_2500)">
<path fill-rule="evenodd" clip-rule="evenodd" d="M600 337.987C600.007 271.719 652.94 218 718.235 218C718.825 218 719.413 218.004 720 218.013C719.993 284.281 667.06 338 601.765 338C601.175 338 600.587 337.996 600 337.987Z" fill="#E8E4DC"/>
<path fill-rule="evenodd" clip-rule="evenodd" d="M600.013 338C666.281 338.007 720 390.94 720 456.235C720 456.825 719.996 457.413 719.987 458C653.719 457.993 600 405.06 600 339.765C600 339.175 600.004 338.587 600.013 338Z" fill="#E8E4DC"/>
<path fill-rule="evenodd" clip-rule="evenodd" d="M480.013 218C546.281 218.007 600 270.94 600 336.235C600 336.825 599.996 337.413 599.987 338C533.719 337.993 480 285.06 480 219.765C480 219.175 480.004 218.587 480.013 218Z" fill="#E8E4DC"/>
<path fill-rule="evenodd" clip-rule="evenodd" d="M480 457.987C480.007 391.719 532.94 338 598.235 338C598.825 338 599.413 338.004 600 338.013C599.993 404.281 547.06 458 481.765 458C481.175 458 480.587 457.996 480 457.987Z" fill="#E8E4DC"/>
</g>
<g clip-path="url(#clip8_101_2500)">
<path fill-rule="evenodd" clip-rule="evenodd" d="M840 337.987C840.007 271.719 892.94 218 958.235 218C958.825 218 959.413 218.004 960 218.013C959.993 284.281 907.06 338 841.765 338C841.175 338 840.587 337.996 840 337.987Z" fill="#E8E4DC"/>
<path fill-rule="evenodd" clip-rule="evenodd" d="M840.013 338C906.281 338.007 960 390.94 960 456.235C960 456.825 959.996 457.413 959.987 458C893.719 457.993 840 405.06 840 339.765C840 339.175 840.004 338.587 840.013 338Z" fill="#E8E4DC"/>
<path fill-rule="evenodd" clip-rule="evenodd" d="M720.013 218C786.281 218.007 840 270.94 840 336.235C840 336.825 839.996 337.413 839.987 338C773.719 337.993 720 285.06 720 219.765C720 219.175 720.004 218.587 720.013 218Z" fill="#E8E4DC"/>
<path fill-rule="evenodd" clip-rule="evenodd" d="M720 457.987C720.007 391.719 772.94 338 838.235 338C838.825 338 839.413 338.004 840 338.013C839.993 404.281 787.06 458 721.765 458C721.175 458 720.587 457.996 720 457.987Z" fill="#E8E4DC"/>
</g>
<g clip-path="url(#clip9_101_2500)">
<path fill-rule="evenodd" clip-rule="evenodd" d="M1080 337.987C1080.01 271.719 1132.94 218 1198.24 218C1198.82 218 1199.41 218.004 1200 218.013C1199.99 284.281 1147.06 338 1081.76 338C1081.18 338 1080.59 337.996 1080 337.987Z" fill="#E8E4DC"/>
<path fill-rule="evenodd" clip-rule="evenodd" d="M1080.01 338C1146.28 338.007 1200 390.94 1200 456.235C1200 456.825 1200 457.413 1199.99 458C1133.72 457.993 1080 405.06 1080 339.765C1080 339.175 1080 338.587 1080.01 338Z" fill="#E8E4DC"/>
<path fill-rule="evenodd" clip-rule="evenodd" d="M960.013 218C1026.28 218.007 1080 270.94 1080 336.235C1080 336.825 1080 337.413 1079.99 338C1013.72 337.993 960 285.06 960 219.765C960 219.175 960.004 218.587 960.013 218Z" fill="#E8E4DC"/>
<path fill-rule="evenodd" clip-rule="evenodd" d="M960 457.987C960.007 391.719 1012.94 338 1078.24 338C1078.82 338 1079.41 338.004 1080 338.013C1079.99 404.281 1027.06 458 961.765 458C961.175 458 960.587 457.996 960 457.987Z" fill="#E8E4DC"/>
</g>
<g clip-path="url(#clip10_101_2500)">
<path fill-rule="evenodd" clip-rule="evenodd" d="M120 577.987C120.007 511.719 172.94 458 238.235 458C238.825 458 239.413 458.004 240 458.013C239.993 524.281 187.06 578 121.765 578C121.175 578 120.587 577.996 120 577.987Z" fill="#E8E4DC"/>
<path fill-rule="evenodd" clip-rule="evenodd" d="M120.013 578C186.281 578.007 240 630.94 240 696.235C240 696.825 239.996 697.413 239.987 698C173.719 697.993 120 645.06 120 579.765C120 579.175 120.004 578.587 120.013 578Z" fill="#E8E4DC"/>
<path fill-rule="evenodd" clip-rule="evenodd" d="M0.0130844 458C66.2812 458.007 120 510.94 120 576.235C120 576.825 119.996 577.413 119.987 578C53.7187 577.993 -1.05607e-05 525.06 -7.70654e-06 459.765C-7.68078e-06 459.175 0.00436399 458.587 0.0130844 458Z" fill="#E8E4DC"/>
<path fill-rule="evenodd" clip-rule="evenodd" d="M0 697.987C0.00697202 631.719 52.94 578 118.235 578C118.825 578 119.413 578.004 120 578.013C119.993 644.281 67.0599 698 1.76469 698C1.17544 698 0.587202 697.996 0 697.987Z" fill="#E8E4DC"/>
</g>
<g clip-path="url(#clip11_101_2500)">
<path fill-rule="evenodd" clip-rule="evenodd" d="M360 577.987C360.007 511.719 412.94 458 478.235 458C478.825 458 479.413 458.004 480 458.013C479.993 524.281 427.06 578 361.765 578C361.175 578 360.587 577.996 360 577.987Z" fill="#E8E4DC"/>
<path fill-rule="evenodd" clip-rule="evenodd" d="M360.013 578C426.281 578.007 480 630.94 480 696.235C480 696.825 479.996 697.413 479.987 698C413.719 697.993 360 645.06 360 579.765C360 579.175 360.004 578.587 360.013 578Z" fill="#E8E4DC"/>
<path fill-rule="evenodd" clip-rule="evenodd" d="M240.013 458C306.281 458.007 360 510.94 360 576.235C360 576.825 359.996 577.413 359.987 578C293.719 577.993 240 525.06 240 459.765C240 459.175 240.004 458.587 240.013 458Z" fill="#E8E4DC"/>
<path fill-rule="evenodd" clip-rule="evenodd" d="M240 697.987C240.007 631.719 292.94 578 358.235 578C358.825 578 359.413 578.004 360 578.013C359.993 644.281 307.06 698 241.765 698C241.175 698 240.587 697.996 240 697.987Z" fill="#E8E4DC"/>
</g>
<g clip-path="url(#clip12_101_2500)">
<path fill-rule="evenodd" clip-rule="evenodd" d="M600 577.987C600.007 511.719 652.94 458 718.235 458C718.825 458 719.413 458.004 720 458.013C719.993 524.281 667.06 578 601.765 578C601.175 578 600.587 577.996 600 577.987Z" fill="#E8E4DC"/>
<path fill-rule="evenodd" clip-rule="evenodd" d="M600.013 578C666.281 578.007 720 630.94 720 696.235C720 696.825 719.996 697.413 719.987 698C653.719 697.993 600 645.06 600 579.765C600 579.175 600.004 578.587 600.013 578Z" fill="#E8E4DC"/>
<path fill-rule="evenodd" clip-rule="evenodd" d="M480.013 458C546.281 458.007 600 510.94 600 576.235C600 576.825 599.996 577.413 599.987 578C533.719 577.993 480 525.06 480 459.765C480 459.175 480.004 458.587 480.013 458Z" fill="#E8E4DC"/>
<path fill-rule="evenodd" clip-rule="evenodd" d="M480 697.987C480.007 631.719 532.94 578 598.235 578C598.825 578 599.413 578.004 600 578.013C599.993 644.281 547.06 698 481.765 698C481.175 698 480.587 697.996 480 697.987Z" fill="#E8E4DC"/>
</g>
<g clip-path="url(#clip13_101_2500)">
<path fill-rule="evenodd" clip-rule="evenodd" d="M840 577.987C840.007 511.719 892.94 458 958.235 458C958.825 458 959.413 458.004 960 458.013C959.993 524.281 907.06 578 841.765 578C841.175 578 840.587 577.996 840 577.987Z" fill="#E8E4DC"/>
<path fill-rule="evenodd" clip-rule="evenodd" d="M840.013 578C906.281 578.007 960 630.94 960 696.235C960 696.825 959.996 697.413 959.987 698C893.719 697.993 840 645.06 840 579.765C840 579.175 840.004 578.587 840.013 578Z" fill="#E8E4DC"/>
<path fill-rule="evenodd" clip-rule="evenodd" d="M720.013 458C786.281 458.007 840 510.94 840 576.235C840 576.825 839.996 577.413 839.987 578C773.719 577.993 720 525.06 720 459.765C720 459.175 720.004 458.587 720.013 458Z" fill="#E8E4DC"/>
<path fill-rule="evenodd" clip-rule="evenodd" d="M720 697.987C720.007 631.719 772.94 578 838.235 578C838.825 578 839.413 578.004 840 578.013C839.993 644.281 787.06 698 721.765 698C721.175 698 720.587 697.996 720 697.987Z" fill="#E8E4DC"/>
</g>
<g clip-path="url(#clip14_101_2500)">
<path fill-rule="evenodd" clip-rule="evenodd" d="M1080 577.987C1080.01 511.719 1132.94 458 1198.24 458C1198.82 458 1199.41 458.004 1200 458.013C1199.99 524.281 1147.06 578 1081.76 578C1081.18 578 1080.59 577.996 1080 577.987Z" fill="#E8E4DC"/>
<path fill-rule="evenodd" clip-rule="evenodd" d="M1080.01 578C1146.28 578.007 1200 630.94 1200 696.235C1200 696.825 1200 697.413 1199.99 698C1133.72 697.993 1080 645.06 1080 579.765C1080 579.175 1080 578.587 1080.01 578Z" fill="#E8E4DC"/>
<path fill-rule="evenodd" clip-rule="evenodd" d="M960.013 458C1026.28 458.007 1080 510.94 1080 576.235C1080 576.825 1080 577.413 1079.99 578C1013.72 577.993 960 525.06 960 459.765C960 459.175 960.004 458.587 960.013 458Z" fill="#E8E4DC"/>
<path fill-rule="evenodd" clip-rule="evenodd" d="M960 697.987C960.007 631.719 1012.94 578 1078.24 578C1078.82 578 1079.41 578.004 1080 578.013C1079.99 644.281 1027.06 698 961.765 698C961.175 698 960.587 697.996 960 697.987Z" fill="#E8E4DC"/>
</g>
<defs>
<clipPath id="clip0_101_2500">
<rect width="240" height="240" fill="white" transform="translate(0 -22)"/>
</clipPath>
<clipPath id="clip1_101_2500">
<rect width="240" height="240" fill="white" transform="translate(240 -22)"/>
</clipPath>
<clipPath id="clip2_101_2500">
<rect width="240" height="240" fill="white" transform="translate(480 -22)"/>
</clipPath>
<clipPath id="clip3_101_2500">
<rect width="240" height="240" fill="white" transform="translate(720 -22)"/>
</clipPath>
<clipPath id="clip4_101_2500">
<rect width="240" height="240" fill="white" transform="translate(960 -22)"/>
</clipPath>
<clipPath id="clip5_101_2500">
<rect width="240" height="240" fill="white" transform="translate(0 218)"/>
</clipPath>
<clipPath id="clip6_101_2500">
<rect width="240" height="240" fill="white" transform="translate(240 218)"/>
</clipPath>
<clipPath id="clip7_101_2500">
<rect width="240" height="240" fill="white" transform="translate(480 218)"/>
</clipPath>
<clipPath id="clip8_101_2500">
<rect width="240" height="240" fill="white" transform="translate(720 218)"/>
</clipPath>
<clipPath id="clip9_101_2500">
<rect width="240" height="240" fill="white" transform="translate(960 218)"/>
</clipPath>
<clipPath id="clip10_101_2500">
<rect width="240" height="240" fill="white" transform="translate(0 458)"/>
</clipPath>
<clipPath id="clip11_101_2500">
<rect width="240" height="240" fill="white" transform="translate(240 458)"/>
</clipPath>
<clipPath id="clip12_101_2500">
<rect width="240" height="240" fill="white" transform="translate(480 458)"/>
</clipPath>
<clipPath id="clip13_101_2500">
<rect width="240" height="240" fill="white" transform="translate(720 458)"/>
</clipPath>
<clipPath id="clip14_101_2500">
<rect width="240" height="240" fill="white" transform="translate(960 458)"/>
</clipPath>
</defs>
</svg>
