<svg width="537" height="167" viewBox="0 0 537 167" fill="none" xmlns="http://www.w3.org/2000/svg">
<path d="M280.433 69V49.992L324.977 19.08H280.433V0.0719948H357.617V19.08L312.785 49.992H357.617V69H280.433ZM365.595 69V0.0719948H436.059V17.064H388.155V26.76H434.139V42.216H388.155V52.008H436.059V69H365.595ZM444.102 69V0.0719948H477.51L512.742 47.304V0.0719948H535.302V69H501.894L466.661 21.672V69H444.102ZM0.36025 115.08V96.072H82.3443V115.08H52.6803V165H30.1203V115.08H0.36025ZM72.7727 165L108.101 96.072H136.901L172.133 165H148.037L141.989 152.232H102.917L96.7728 165H72.7727ZM110.597 136.008H134.213L122.405 111.336L110.597 136.008ZM162.529 115.08V96.072H244.513V115.08H214.849V165H192.289V115.08H162.529ZM250.598 115.08V96.072H332.582V115.08H302.918V165H280.358V115.08H250.598ZM384.986 166.92C355.706 166.92 336.698 152.616 336.698 130.536C336.698 108.648 355.706 94.44 384.986 94.44C414.458 94.44 433.37 108.648 433.37 130.536C433.37 152.616 414.458 166.92 384.986 166.92ZM360.218 130.536C360.218 141 369.914 147.912 384.986 147.912C400.25 147.912 409.946 141 409.946 130.536C409.946 120.168 400.25 113.352 384.986 113.352C369.818 113.352 360.218 120.168 360.218 130.536ZM487.867 166.92C458.587 166.92 439.579 152.616 439.579 130.536C439.579 108.648 458.587 94.44 487.867 94.44C517.339 94.44 536.251 108.648 536.251 130.536C536.251 152.616 517.339 166.92 487.867 166.92ZM463.099 130.536C463.099 141 472.795 147.912 487.867 147.912C503.131 147.912 512.827 141 512.827 130.536C512.827 120.168 503.131 113.352 487.867 113.352C472.699 113.352 463.099 120.168 463.099 130.536Z" fill="white"/>
</svg>
