<svg width="835" height="73" viewBox="0 0 835 73" fill="none" xmlns="http://www.w3.org/2000/svg">
<path d="M0.664 71V51.992L45.208 21.08H0.664V2.07199H77.848V21.08L33.016 51.992H77.848V71H0.664ZM85.8265 71V2.07199H156.291V19.064H108.386V28.76H154.371V44.216H108.386V54.008H156.291V71H85.8265ZM164.333 71V2.07199H197.741L232.973 49.304V2.07199H255.533V71H222.125L186.893 23.672V71H164.333ZM298.541 21.08V2.07199H380.525V21.08H350.861V71H328.301V21.08H298.541ZM370.954 71L406.282 2.07199H435.082L470.314 71H446.218L440.17 58.232H401.098L394.954 71H370.954ZM408.778 42.008H432.394L420.586 17.336L408.778 42.008ZM460.71 21.08V2.07199H542.694V21.08H513.03V71H490.47V21.08H460.71ZM548.779 21.08V2.07199H630.763V21.08H601.099V71H578.539V21.08H548.779ZM683.167 72.92C653.887 72.92 634.879 58.616 634.879 36.536C634.879 14.648 653.887 0.439999 683.167 0.439999C712.639 0.439999 731.551 14.648 731.551 36.536C731.551 58.616 712.639 72.92 683.167 72.92ZM658.399 36.536C658.399 47 668.095 53.912 683.167 53.912C698.431 53.912 708.127 47 708.127 36.536C708.127 26.168 698.431 19.352 683.167 19.352C667.999 19.352 658.399 26.168 658.399 36.536ZM786.048 72.92C756.768 72.92 737.76 58.616 737.76 36.536C737.76 14.648 756.768 0.439999 786.048 0.439999C815.52 0.439999 834.432 14.648 834.432 36.536C834.432 58.616 815.52 72.92 786.048 72.92ZM761.28 36.536C761.28 47 770.976 53.912 786.048 53.912C801.312 53.912 811.008 47 811.008 36.536C811.008 26.168 801.312 19.352 786.048 19.352C770.88 19.352 761.28 26.168 761.28 36.536Z" fill="white"/>
</svg>
