<?xml version="1.0" encoding="UTF-8"?>
<svg xmlns="http://www.w3.org/2000/svg" xmlns:xlink="http://www.w3.org/1999/xlink" version="1.1" width="2618px" height="3097px" style="shape-rendering:geometricPrecision; text-rendering:geometricPrecision; image-rendering:optimizeQuality; fill-rule:evenodd; clip-rule:evenodd">
  <g>
    <path style="opacity:0.995" fill="#000000" d="M 593.5,-0.5 C 595.833,-0.5 598.167,-0.5 600.5,-0.5C 602.824,2.13813 604.657,5.13813 606,8.5C 616.183,61.1961 638.85,107.529 674,147.5C 702.301,178.136 730.968,208.469 760,238.5C 823.595,310.328 867.928,392.995 893,486.5C 922.41,596.595 934.41,708.595 929,822.5C 927.803,853.918 925.47,885.252 922,916.5C 921.144,927.877 921.478,939.21 923,950.5C 955.355,1026.55 989.355,1101.88 1025,1176.5C 1021.2,1116.97 1029.87,1059.31 1051,1003.5C 1072.38,949.063 1099.71,898.063 1133,850.5C 1157.77,816.053 1184.44,783.053 1213,751.5C 1253.59,708.575 1295.76,667.408 1339.5,628C 1383.26,589.572 1426.43,550.406 1469,510.5C 1484.85,493.993 1499.18,476.326 1512,457.5C 1523.78,439.817 1531.45,420.484 1535,399.5C 1535.28,385.826 1535.28,372.159 1535,358.5C 1535.98,354.536 1537.98,351.203 1541,348.5C 1588.18,376.16 1613.52,417.493 1617,472.5C 1618.26,510.006 1613.26,546.673 1602,582.5C 1579.2,652.089 1547.87,717.422 1508,778.5C 1480.59,818.916 1451.26,857.916 1420,895.5C 1375.29,948.541 1330.96,1001.87 1287,1055.5C 1246.48,1105.55 1209.14,1157.88 1175,1212.5C 1159.77,1237.62 1146.11,1263.62 1134,1290.5C 1125.88,1314.08 1120.72,1338.25 1118.5,1363C 1184.16,1486.87 1255,1607.37 1331,1724.5C 1314.88,1663 1313.21,1601 1326,1538.5C 1339.86,1476.46 1361.86,1417.46 1392,1361.5C 1432.55,1286.71 1481.22,1217.71 1538,1154.5C 1559.97,1130.2 1582.3,1106.2 1605,1082.5C 1654.95,1032.38 1705.28,982.709 1756,933.5C 1782.38,906.471 1805.71,877.138 1826,845.5C 1844.52,815.068 1852.86,782.068 1851,746.5C 1851.96,743.623 1853.29,740.956 1855,738.5C 1856.13,736.789 1857.63,736.289 1859.5,737C 1878.9,750.399 1894.06,767.566 1905,788.5C 1928.33,842.483 1937.33,898.817 1932,957.5C 1926.38,1022.97 1909.38,1085.3 1881,1144.5C 1843.99,1220.24 1797.32,1289.24 1741,1351.5C 1658.22,1435.23 1583.56,1525.23 1517,1621.5C 1492.4,1658.36 1470.06,1696.69 1450,1736.5C 1432.83,1770.85 1420.33,1806.85 1412.5,1844.5C 1498.19,1969.06 1591.36,2088.06 1692,2201.5C 1664.67,2136.2 1655,2068.2 1663,1997.5C 1670.02,1934.4 1685.36,1873.4 1709,1814.5C 1749.68,1715.42 1802.34,1623.75 1867,1539.5C 1897.87,1499.63 1929.87,1460.63 1963,1422.5C 2007.67,1372.5 2052.33,1322.5 2097,1272.5C 2122.78,1242.72 2145.44,1210.72 2165,1176.5C 2181.63,1146.31 2190.3,1113.97 2191,1079.5C 2192.08,1074.01 2194.24,1069.01 2197.5,1064.5C 2198.36,1063.42 2199.36,1063.25 2200.5,1064C 2222.84,1080.48 2237.34,1102.32 2244,1129.5C 2255.45,1177.22 2259.11,1225.55 2255,1274.5C 2248.85,1351.45 2231.51,1425.78 2203,1497.5C 2164.45,1592.89 2114.78,1681.56 2054,1763.5C 1978.67,1857.12 1911,1956.12 1851,2060.5C 1819.47,2115.08 1794.14,2172.41 1775,2232.5C 1770.47,2248.48 1766.97,2264.65 1764.5,2281C 1872.13,2395.99 1987.13,2502.32 2109.5,2600C 2081.05,2549.23 2063.88,2493.73 2058,2433.5C 2052.57,2371.37 2055.9,2309.7 2068,2248.5C 2083.04,2174.06 2105.7,2102.06 2136,2032.5C 2163.59,1968.97 2195.59,1907.97 2232,1849.5C 2255.92,1811.98 2280.59,1774.98 2306,1738.5C 2357.51,1667.48 2409.51,1596.81 2462,1526.5C 2485.38,1493.09 2505.71,1457.76 2523,1420.5C 2535.83,1391.51 2543.16,1361.17 2545,1329.5C 2546.1,1323.7 2548.26,1318.37 2551.5,1313.5C 2552.36,1312.42 2553.36,1312.25 2554.5,1313C 2573.34,1328.49 2585.17,1348.32 2590,1372.5C 2606.54,1585.92 2570.21,1789.92 2481,1984.5C 2472,2002.5 2463,2020.5 2454,2038.5C 2404.16,2122.17 2354.83,2206.17 2306,2290.5C 2280.91,2334.68 2257.91,2380.01 2237,2426.5C 2205.04,2500.97 2188.21,2578.47 2186.5,2659C 2320.29,2758.95 2462.29,2846.62 2612.5,2922C 2614.55,2923.97 2616.22,2926.13 2617.5,2928.5C 2617.5,2932.17 2617.5,2935.83 2617.5,2939.5C 2610.32,2954.2 2602.82,2968.87 2595,2983.5C 2589.75,2988.92 2583.58,2990.42 2576.5,2988C 2422.85,2908.06 2277.85,2815.39 2141.5,2710C 2109.06,2714.69 2077.4,2722.69 2046.5,2734C 1982.2,2761.48 1918.87,2791.15 1856.5,2823C 1774.32,2865.92 1691.99,2908.59 1609.5,2951C 1551.78,2979.53 1493.11,3005.86 1433.5,3030C 1330.66,3069.4 1224.33,3091.57 1114.5,3096.5C 1086.17,3096.5 1057.83,3096.5 1029.5,3096.5C 946.46,3093.33 865.793,3077.49 787.5,3049C 737.918,3030.39 692.918,3004.39 652.5,2971C 626.659,2948.51 604.493,2923.01 586,2894.5C 585.517,2893.55 585.351,2892.55 585.5,2891.5C 591.898,2891.24 598.231,2891.74 604.5,2893C 620.662,2899.28 636.662,2905.94 652.5,2913C 713.238,2934.09 774.905,2937.09 837.5,2922C 867.505,2915.17 896.838,2906.17 925.5,2895C 1033.83,2850 1142.17,2805 1250.5,2760C 1409.75,2697.92 1574.08,2655.25 1743.5,2632C 1811.04,2623.76 1878.71,2622.43 1946.5,2628C 1989.85,2632.01 2031.85,2641.34 2072.5,2656C 1947.4,2553.92 1830.07,2442.92 1720.5,2323C 1673.95,2318.58 1627.95,2321.91 1582.5,2333C 1541.98,2341.88 1501.65,2351.55 1461.5,2362C 1378.72,2384.93 1296.05,2408.26 1213.5,2432C 1131.65,2455.55 1048.65,2473.88 964.5,2487C 825.058,2504.16 688.724,2490.49 555.5,2446C 486.91,2422.62 425.91,2386.95 372.5,2339C 335.164,2303.85 308.83,2261.69 293.5,2212.5C 300.919,2211.62 307.919,2213.12 314.5,2217C 371.766,2262.33 437.099,2282.33 510.5,2277C 537.392,2275.47 564.059,2272.14 590.5,2267C 690.94,2244.81 791.273,2222.14 891.5,2199C 1042.78,2165.64 1195.78,2152.31 1350.5,2159C 1414.56,2162.23 1477.22,2173.23 1538.5,2192C 1578.62,2205.12 1616.29,2222.78 1651.5,2245C 1549.88,2127.07 1455.55,2003.74 1368.5,1875C 1312.74,1857.41 1255.74,1851.75 1197.5,1858C 1157.1,1859.67 1116.77,1862.34 1076.5,1866C 991.22,1874.59 905.887,1882.59 820.5,1890C 756.579,1895.38 692.579,1896.72 628.5,1894C 516.47,1886.16 410.47,1856.83 310.5,1806C 263.547,1781.39 221.381,1750.22 184,1712.5C 153.248,1680.02 130.914,1642.36 117,1599.5C 111.13,1579.24 108.297,1558.58 108.5,1537.5C 114.9,1538.37 120.567,1540.87 125.5,1545C 160.237,1587.72 204.904,1614.05 259.5,1624C 298.956,1630.46 338.622,1632.46 378.5,1630C 464.184,1624.26 549.851,1618.26 635.5,1612C 757.872,1603.03 879.539,1608.7 1000.5,1629C 1070.02,1640.63 1136.35,1661.96 1199.5,1693C 1232.66,1709.91 1262.66,1731.25 1289.5,1757C 1290.17,1757.67 1290.83,1757.67 1291.5,1757C 1215.65,1636.5 1144.98,1512.67 1079.5,1385.5C 1047.51,1365.34 1012.84,1352.17 975.5,1346C 932.748,1338.46 889.748,1332.8 846.5,1329C 754.849,1322.13 663.182,1315.46 571.5,1309C 507.079,1304.18 443.413,1294.51 380.5,1280C 283.888,1254.53 196.888,1210.86 119.5,1149C 77.3194,1114.17 44.1527,1072.34 20,1023.5C 9.39904,999.75 2.56571,975.084 -0.5,949.5C -0.5,935.5 -0.5,921.5 -0.5,907.5C 0.958607,896.109 3.29194,884.776 6.5,873.5C 11.6802,875.519 16.1802,878.519 20,882.5C 39.8201,923.987 70.9867,953.487 113.5,971C 150.559,985.146 188.892,993.813 228.5,997C 303.79,1003.23 379.123,1008.9 454.5,1014C 552.296,1019.97 648.296,1036.3 742.5,1063C 801.371,1079.84 857.037,1103.84 909.5,1135C 938.272,1152.75 964.439,1173.92 988,1198.5C 953.02,1120.86 919.354,1042.53 887,963.5C 871.419,946.584 854.586,931.084 836.5,917C 756.626,845.653 691.792,762.82 642,668.5C 600.18,586.568 573.513,499.901 562,408.5C 547.38,300.388 548.047,192.388 564,84.5C 567.949,57.3645 575.616,31.3645 587,6.5C 588.728,3.67029 590.895,1.33695 593.5,-0.5 Z"></path>
  </g>
</svg>
